<svg width="100" height="100" viewBox="0 0 100 100" fill="none" xmlns="http://www.w3.org/2000/svg">
  <defs>
    <linearGradient id="logo-gradient" x1="0%" y1="0%" x2="100%" y2="100%">
      <stop offset="0%" stop-color="#15639e" />
      <stop offset="100%" stop-color="#0f3d5c" />
    </linearGradient>
  </defs>
  <rect width="100" height="100" rx="22" fill="url(#logo-gradient)" />
  <path d="M32 28C32 26.3431 33.3431 25 35 25H58L72 39V72C72 73.6569 70.6569 75 69 75H35C33.3431 75 32 73.6569 32 72V28Z" fill="white" />
  <path d="M58 25V39H72L58 25Z" fill="#e2e8f0" />
  <rect x="40" y="46" width="22" height="3" rx="1.5" fill="#0f3d5c" fill-opacity="0.2" />
  <rect x="40" y="54" width="22" height="3" rx="1.5" fill="#0f3d5c" fill-opacity="0.2" />
  <rect x="40" y="62" width="14" height="3" rx="1.5" fill="#0f3d5c" fill-opacity="0.2" />
  <circle cx="70" cy="70" r="14" fill="#ef4444" />
  <path d="M70 62L72 68H78L73 72L75 78L70 74L65 78L67 72L62 68H68L70 62Z" fill="white" />
</svg>
